<svg height="64" width="64" xmlns="http://www.w3.org/2000/svg"><circle cx="31.833" cy="32" fill="#F5EEE5" r="32"/><path d="M52 48a2 2 0 01-2 2H14a2 2 0 110-4h36a2 2 0 012 2z" fill="#231F20" opacity=".2"/><path d="M52 46a2 2 0 01-2 2H14a2 2 0 110-4h36a2 2 0 012 2z" fill="#E0995E"/><path d="M23 20h-4a3 3 0 00-3 3v21h10V23a3 3 0 00-3-3z" fill="#C75C5C"/><path d="M45 16h-4a3 3 0 00-3 3v25h10V19a3 3 0 00-3-3z" fill="#E0E0D1"/><path fill="#E0995E" d="M16 24h10v3H16zM16 37h10v3H16z"/><path fill="#FFF" d="M38 37h10v3H38zM38 20h10v3H38z"/><path d="M40 40V16.184A2.99 2.99 0 0038 19v25h2v-4zM26 40V23a2.99 2.99 0 00-2-2.816V44h2v-4z" fill="#231F20" opacity=".2"/><path d="M35 12h-6a3 3 0 00-3 3v29h12V15a3 3 0 00-3-3z" fill="#4F5D73"/><path fill="#76C2AF" d="M26 16h12v3H26z"/><g><path fill="#76C2AF" d="M26 37h12v3H26z"/></g></svg>
